<mxfile host="65bd71144e">
    <diagram id="Z197ZlgL_VFQGSl54Bnt" name="Page-1">
        <mxGraphModel dx="1609" dy="686" grid="1" gridSize="10" guides="1" tooltips="1" connect="1" arrows="1" fold="1" page="1" pageScale="1" pageWidth="1654" pageHeight="2336" math="0" shadow="0">
            <root>
                <mxCell id="0"/>
                <mxCell id="1" parent="0"/>
                <mxCell id="2" value="Start" style="strokeWidth=2;html=1;shape=mxgraph.flowchart.start_1;whiteSpace=wrap;" parent="1" vertex="1">
                    <mxGeometry x="365" y="90" width="100" height="60" as="geometry"/>
                </mxCell>
                <mxCell id="18" style="edgeStyle=none;html=1;exitX=0.5;exitY=1;exitDx=0;exitDy=0;entryX=0.5;entryY=0;entryDx=0;entryDy=0;" parent="1" source="3" target="5" edge="1">
                    <mxGeometry relative="1" as="geometry"/>
                </mxCell>
                <mxCell id="19" value="&lt;font color=&quot;#121212&quot;&gt;Process&lt;/font&gt;" style="edgeLabel;html=1;align=center;verticalAlign=middle;resizable=0;points=[];" parent="18" vertex="1" connectable="0">
                    <mxGeometry x="-0.1525" relative="1" as="geometry">
                        <mxPoint as="offset"/>
                    </mxGeometry>
                </mxCell>
                <mxCell id="3" value="Homepage" style="rounded=1;whiteSpace=wrap;html=1;absoluteArcSize=1;arcSize=14;strokeWidth=2;" parent="1" vertex="1">
                    <mxGeometry x="345" y="210" width="140" height="100" as="geometry"/>
                </mxCell>
                <mxCell id="16" style="edgeStyle=none;html=1;exitX=0.5;exitY=1;exitDx=0;exitDy=0;entryX=0.5;entryY=0;entryDx=0;entryDy=0;" parent="1" source="5" target="6" edge="1">
                    <mxGeometry relative="1" as="geometry"/>
                </mxCell>
                <mxCell id="17" value="Process" style="edgeLabel;html=1;align=center;verticalAlign=middle;resizable=0;points=[];" parent="16" vertex="1" connectable="0">
                    <mxGeometry x="-0.0581" relative="1" as="geometry">
                        <mxPoint as="offset"/>
                    </mxGeometry>
                </mxCell>
                <mxCell id="5" value="About Us" style="rounded=1;whiteSpace=wrap;html=1;absoluteArcSize=1;arcSize=14;strokeWidth=2;" parent="1" vertex="1">
                    <mxGeometry x="365" y="370" width="100" height="100" as="geometry"/>
                </mxCell>
                <mxCell id="30" style="edgeStyle=none;html=1;exitX=0.5;exitY=1;exitDx=0;exitDy=0;entryX=0.5;entryY=0;entryDx=0;entryDy=0;" parent="1" source="6" target="7" edge="1">
                    <mxGeometry relative="1" as="geometry"/>
                </mxCell>
                <mxCell id="n9VKnUuhQBIoxa0tSoIu-47" value="Process" style="edgeLabel;html=1;align=center;verticalAlign=middle;resizable=0;points=[];" parent="30" vertex="1" connectable="0">
                    <mxGeometry x="0.0067" relative="1" as="geometry">
                        <mxPoint as="offset"/>
                    </mxGeometry>
                </mxCell>
                <mxCell id="6" value="Contact Us" style="rounded=1;whiteSpace=wrap;html=1;absoluteArcSize=1;arcSize=14;strokeWidth=2;" parent="1" vertex="1">
                    <mxGeometry x="365" y="530" width="100" height="100" as="geometry"/>
                </mxCell>
                <mxCell id="31" style="edgeStyle=none;html=1;exitX=0.5;exitY=1;exitDx=0;exitDy=0;entryX=0.5;entryY=0;entryDx=0;entryDy=0;" parent="1" source="7" target="20" edge="1">
                    <mxGeometry relative="1" as="geometry">
                        <mxPoint x="415" y="840" as="targetPoint"/>
                    </mxGeometry>
                </mxCell>
                <mxCell id="n9VKnUuhQBIoxa0tSoIu-48" value="Process" style="edgeLabel;html=1;align=center;verticalAlign=middle;resizable=0;points=[];" parent="31" vertex="1" connectable="0">
                    <mxGeometry x="-0.0857" relative="1" as="geometry">
                        <mxPoint as="offset"/>
                    </mxGeometry>
                </mxCell>
                <mxCell id="7" value="Products page" style="rounded=1;whiteSpace=wrap;html=1;absoluteArcSize=1;arcSize=14;strokeWidth=2;" parent="1" vertex="1">
                    <mxGeometry x="365" y="690" width="100" height="100" as="geometry"/>
                </mxCell>
                <mxCell id="14" value="" style="endArrow=classic;html=1;exitX=0.5;exitY=1;exitDx=0;exitDy=0;exitPerimeter=0;entryX=0.5;entryY=0;entryDx=0;entryDy=0;" parent="1" source="2" target="3" edge="1">
                    <mxGeometry relative="1" as="geometry">
                        <mxPoint x="465" y="210" as="sourcePoint"/>
                        <mxPoint x="565" y="210" as="targetPoint"/>
                    </mxGeometry>
                </mxCell>
                <mxCell id="15" value="Process" style="edgeLabel;resizable=0;html=1;;align=center;verticalAlign=middle;" parent="14" connectable="0" vertex="1">
                    <mxGeometry relative="1" as="geometry"/>
                </mxCell>
                <mxCell id="33" style="edgeStyle=none;html=1;exitX=0.5;exitY=1;exitDx=0;exitDy=0;entryX=0.5;entryY=0;entryDx=0;entryDy=0;" edge="1" parent="1" source="20" target="n9VKnUuhQBIoxa0tSoIu-49">
                    <mxGeometry relative="1" as="geometry"/>
                </mxCell>
                <mxCell id="20" value="Card added to cart" style="rounded=1;whiteSpace=wrap;html=1;absoluteArcSize=1;arcSize=14;strokeWidth=2;" parent="1" vertex="1">
                    <mxGeometry x="365" y="850" width="100" height="100" as="geometry"/>
                </mxCell>
                <mxCell id="n9VKnUuhQBIoxa0tSoIu-56" style="edgeStyle=none;html=1;exitX=0.5;exitY=1;exitDx=0;exitDy=0;entryX=0.5;entryY=0;entryDx=0;entryDy=0;" parent="1" source="21" target="n9VKnUuhQBIoxa0tSoIu-55" edge="1">
                    <mxGeometry relative="1" as="geometry"/>
                </mxCell>
                <mxCell id="21" value="CheckOut Page" style="rounded=1;whiteSpace=wrap;html=1;absoluteArcSize=1;arcSize=14;strokeWidth=2;" parent="1" vertex="1">
                    <mxGeometry x="365" y="1600" width="100" height="100" as="geometry"/>
                </mxCell>
                <mxCell id="n9VKnUuhQBIoxa0tSoIu-45" value="END" style="strokeWidth=2;html=1;shape=mxgraph.flowchart.start_1;whiteSpace=wrap;" parent="1" vertex="1">
                    <mxGeometry x="465" y="2240" width="100" height="60" as="geometry"/>
                </mxCell>
                <mxCell id="n9VKnUuhQBIoxa0tSoIu-52" style="edgeStyle=none;html=1;exitX=0;exitY=1;exitDx=0;exitDy=0;entryX=0.5;entryY=0;entryDx=0;entryDy=0;" parent="1" source="n9VKnUuhQBIoxa0tSoIu-49" edge="1">
                    <mxGeometry relative="1" as="geometry">
                        <mxPoint x="345" y="1410" as="targetPoint"/>
                    </mxGeometry>
                </mxCell>
                <mxCell id="n9VKnUuhQBIoxa0tSoIu-53" style="edgeStyle=none;html=1;exitX=1;exitY=1;exitDx=0;exitDy=0;entryX=0.5;entryY=0;entryDx=0;entryDy=0;" parent="1" source="n9VKnUuhQBIoxa0tSoIu-49" target="n9VKnUuhQBIoxa0tSoIu-51" edge="1">
                    <mxGeometry relative="1" as="geometry"/>
                </mxCell>
                <mxCell id="n9VKnUuhQBIoxa0tSoIu-49" value="User choose to proceed to checkout or continue shopping" style="rhombus;whiteSpace=wrap;html=1;" parent="1" vertex="1">
                    <mxGeometry x="320" y="1170" width="190" height="190" as="geometry"/>
                </mxCell>
                <mxCell id="35" style="edgeStyle=none;html=1;exitX=0.5;exitY=1;exitDx=0;exitDy=0;entryX=0.5;entryY=0;entryDx=0;entryDy=0;" edge="1" parent="1" source="n9VKnUuhQBIoxa0tSoIu-50" target="21">
                    <mxGeometry relative="1" as="geometry">
                        <mxPoint x="400" y="1580" as="targetPoint"/>
                    </mxGeometry>
                </mxCell>
                <mxCell id="n9VKnUuhQBIoxa0tSoIu-50" value="Proceed to Checkout" style="rounded=1;whiteSpace=wrap;html=1;absoluteArcSize=1;arcSize=14;strokeWidth=2;" parent="1" vertex="1">
                    <mxGeometry x="300" y="1410" width="100" height="100" as="geometry"/>
                </mxCell>
                <mxCell id="n9VKnUuhQBIoxa0tSoIu-54" style="edgeStyle=none;html=1;entryX=1;entryY=0.5;entryDx=0;entryDy=0;" parent="1" source="n9VKnUuhQBIoxa0tSoIu-51" target="7" edge="1">
                    <mxGeometry relative="1" as="geometry">
                        <Array as="points">
                            <mxPoint x="740" y="1460"/>
                            <mxPoint x="740" y="740"/>
                        </Array>
                    </mxGeometry>
                </mxCell>
                <mxCell id="n9VKnUuhQBIoxa0tSoIu-51" value="Continue Shopping" style="rounded=1;whiteSpace=wrap;html=1;absoluteArcSize=1;arcSize=14;strokeWidth=2;" parent="1" vertex="1">
                    <mxGeometry x="445" y="1410" width="100" height="100" as="geometry"/>
                </mxCell>
                <mxCell id="n9VKnUuhQBIoxa0tSoIu-60" style="edgeStyle=none;html=1;exitX=1;exitY=1;exitDx=0;exitDy=0;entryX=0.5;entryY=0;entryDx=0;entryDy=0;" parent="1" source="n9VKnUuhQBIoxa0tSoIu-55" target="n9VKnUuhQBIoxa0tSoIu-59" edge="1">
                    <mxGeometry relative="1" as="geometry"/>
                </mxCell>
                <mxCell id="n9VKnUuhQBIoxa0tSoIu-63" style="edgeStyle=none;html=1;exitX=0;exitY=1;exitDx=0;exitDy=0;entryX=0.5;entryY=0;entryDx=0;entryDy=0;" parent="1" source="n9VKnUuhQBIoxa0tSoIu-55" target="n9VKnUuhQBIoxa0tSoIu-58" edge="1">
                    <mxGeometry relative="1" as="geometry"/>
                </mxCell>
                <mxCell id="n9VKnUuhQBIoxa0tSoIu-55" value="Customer choose&amp;nbsp;" style="rhombus;whiteSpace=wrap;html=1;" parent="1" vertex="1">
                    <mxGeometry x="355" y="1760" width="120" height="80" as="geometry"/>
                </mxCell>
                <mxCell id="n9VKnUuhQBIoxa0tSoIu-64" style="edgeStyle=none;html=1;exitX=0;exitY=0.5;exitDx=0;exitDy=0;entryX=0;entryY=0.5;entryDx=0;entryDy=0;" parent="1" source="n9VKnUuhQBIoxa0tSoIu-58" target="20" edge="1">
                    <mxGeometry relative="1" as="geometry">
                        <Array as="points">
                            <mxPoint x="80" y="1930"/>
                            <mxPoint x="80" y="900"/>
                        </Array>
                    </mxGeometry>
                </mxCell>
                <mxCell id="n9VKnUuhQBIoxa0tSoIu-58" value="Back to Cart&amp;nbsp;" style="rounded=1;whiteSpace=wrap;html=1;absoluteArcSize=1;arcSize=14;strokeWidth=2;" parent="1" vertex="1">
                    <mxGeometry x="265" y="1880" width="100" height="100" as="geometry"/>
                </mxCell>
                <mxCell id="n9VKnUuhQBIoxa0tSoIu-59" value="Confirm Order" style="rounded=1;whiteSpace=wrap;html=1;absoluteArcSize=1;arcSize=14;strokeWidth=2;" parent="1" vertex="1">
                    <mxGeometry x="460" y="1880" width="100" height="100" as="geometry"/>
                </mxCell>
                <mxCell id="n9VKnUuhQBIoxa0tSoIu-68" style="edgeStyle=none;html=1;exitX=0.5;exitY=1;exitDx=0;exitDy=0;" parent="1" source="n9VKnUuhQBIoxa0tSoIu-65" edge="1">
                    <mxGeometry relative="1" as="geometry">
                        <mxPoint x="515.1578947368421" y="2239.9999999999995" as="targetPoint"/>
                    </mxGeometry>
                </mxCell>
                <mxCell id="n9VKnUuhQBIoxa0tSoIu-65" value="Order History Page" style="rounded=1;whiteSpace=wrap;html=1;absoluteArcSize=1;arcSize=14;strokeWidth=2;" parent="1" vertex="1">
                    <mxGeometry x="465" y="2050" width="100" height="100" as="geometry"/>
                </mxCell>
                <mxCell id="n9VKnUuhQBIoxa0tSoIu-66" style="edgeStyle=none;html=1;exitX=0.5;exitY=1;exitDx=0;exitDy=0;entryX=0.435;entryY=-0.005;entryDx=0;entryDy=0;entryPerimeter=0;" parent="1" source="n9VKnUuhQBIoxa0tSoIu-59" target="n9VKnUuhQBIoxa0tSoIu-65" edge="1">
                    <mxGeometry relative="1" as="geometry"/>
                </mxCell>
            </root>
        </mxGraphModel>
    </diagram>
</mxfile>